<svg xmlns="http://www.w3.org/2000/svg">
    <symbol id="mail-icon" viewBox="0 0 24 24" fill="none" xmlns="http://www.w3.org/2000/svg">
        <path d="M18 5H6C4 5 3 6 3 8V17C3 19 4 20 6 20H18C20 20 21 19 21 17V8C21 6 20 5 18 5ZM17.9409 9.606L13.0291 13.178C12.7211 13.402 12.36 13.514 12 13.514C11.64 13.514 11.2779 13.402 10.9709 13.179L6.05908 9.606C5.72408 9.363 5.65004 8.893 5.89404 8.558C6.13704 8.224 6.60389 8.14801 6.94189 8.39301L11.854 11.965C11.942 12.028 12.059 12.029 12.147 11.965L17.0591 8.39301C17.3961 8.14801 17.8639 8.224 18.1069 8.558C18.3509 8.894 18.2759 9.363 17.9409 9.606Z" fill="#1B1B1B"/>
    </symbol>
    <symbol id="booking-icon" viewBox="0 0 24 24" fill="none" xmlns="http://www.w3.org/2000/svg">
        <path d="M18 5H6C4 5 3 6 3 8V16C3 18 4 19 6 19H18C20 19 21 18 21 16V8C21 6 20 5 18 5ZM6 13C5.45 13 5 12.55 5 12C5 11.45 5.45 11 6 11C6.55 11 7 11.45 7 12C7 12.55 6.55 13 6 13ZM12 15C10.34 15 9 13.66 9 12C9 10.34 10.34 9 12 9C13.66 9 15 10.34 15 12C15 13.66 13.66 15 12 15ZM18 13C17.45 13 17 12.55 17 12C17 11.45 17.45 11 18 11C18.55 11 19 11.45 19 12C19 12.55 18.55 13 18 13Z" fill="#1B1B1B"/>
    </symbol>
    <symbol id="school-icon" viewBox="0 0 24 24" fill="none" xmlns="http://www.w3.org/2000/svg">
        <path d="M22 21.2501H21V13.5001C21 12.6701 20.33 12.0001 19.5 12.0001H18V6.57504L19.5861 7.62606C19.7131 7.71006 19.857 7.75106 19.999 7.75106C20.242 7.75106 20.48 7.63313 20.625 7.41513C20.854 7.07013 20.7599 6.60409 20.4139 6.37509L13.248 1.62802C12.491 1.12302 11.511 1.12204 10.754 1.62704L3.58606 6.37509C3.24006 6.60409 3.146 7.06913 3.375 7.41513C3.604 7.76013 4.06894 7.85506 4.41394 7.62606L6 6.57504V12.0001H4.5C3.67 12.0001 3 12.6701 3 13.5001V21.2501H2C1.586 21.2501 1.25 21.5861 1.25 22.0001C1.25 22.4141 1.586 22.7501 2 22.7501H22C22.414 22.7501 22.75 22.4141 22.75 22.0001C22.75 21.5861 22.414 21.2501 22 21.2501ZM15 9.50009C15 11.1601 13.66 12.5001 12 12.5001C10.34 12.5001 9 11.1601 9 9.50009C9 7.84009 10.34 6.50009 12 6.50009C13.66 6.50009 15 7.84009 15 9.50009ZM16.75 18.0001C16.75 17.5861 17.086 17.2501 17.5 17.2501C17.914 17.2501 18.25 17.5861 18.25 18.0001C18.25 18.4141 17.914 18.7501 17.5 18.7501C17.086 18.7501 16.75 18.4141 16.75 18.0001ZM18.25 15.5001C18.25 15.9141 17.914 16.2501 17.5 16.2501C17.086 16.2501 16.75 15.9141 16.75 15.5001C16.75 15.0861 17.086 14.7501 17.5 14.7501C17.914 14.7501 18.25 15.0861 18.25 15.5001ZM6.5 14.7501C6.914 14.7501 7.25 15.0861 7.25 15.5001C7.25 15.9141 6.914 16.2501 6.5 16.2501C6.086 16.2501 5.75 15.9141 5.75 15.5001C5.75 15.0861 6.086 14.7501 6.5 14.7501ZM6.5 17.2501C6.914 17.2501 7.25 17.5861 7.25 18.0001C7.25 18.4141 6.914 18.7501 6.5 18.7501C6.086 18.7501 5.75 18.4141 5.75 18.0001C5.75 17.5861 6.086 17.2501 6.5 17.2501ZM10 18.0001C10 16.8961 10.896 16.0001 12 16.0001C13.104 16.0001 14 16.8961 14 18.0001V21.2501H10V18.0001ZM11.5 9.50009V8.37997C11.5 8.09997 11.72 7.87997 12 7.87997C12.28 7.87997 12.5 8.09997 12.5 8.37997V9.50009C12.5 9.78009 12.28 10.0001 12 10.0001C11.72 10.0001 11.5 9.78009 11.5 9.50009Z" fill="#8B8BA4"/>
    </symbol>
    <symbol id="location-icon" viewBox="0 0 24 24" fill="none" xmlns="http://www.w3.org/2000/svg">
        <path d="M12 2.5C7.313 2.5 3.5 6.313 3.5 11C3.5 15.983 8.129 19.041 11.192 21.064L11.722 21.416C11.806 21.472 11.903 21.5 11.999 21.5C12.095 21.5 12.192 21.472 12.276 21.416L12.806 21.064C15.869 19.041 20.498 15.983 20.498 11C20.5 6.313 16.687 2.5 12 2.5ZM12 13.5C10.619 13.5 9.5 12.381 9.5 11C9.5 9.619 10.619 8.5 12 8.5C13.381 8.5 14.5 9.619 14.5 11C14.5 12.381 13.381 13.5 12 13.5Z" fill="#8B8BA4"/>
    </symbol>
    <symbol id="graduation-icon" viewBox="0 0 24 24" fill="none" xmlns="http://www.w3.org/2000/svg">
        <path d="M18 14.4189V16.6999C18 17.3939 17.6329 18.035 17.0459 18.406C13.6819 20.531 10.3169 20.531 6.9529 18.406C6.3659 18.036 5.99905 17.3939 5.99905 16.6999V14.4189C5.99905 14.3429 6.08 14.295 6.147 14.331L9.81912 16.3399C10.4791 16.6999 11.239 16.89 11.999 16.89C12.759 16.89 13.519 16.6999 14.179 16.3399L17.8511 14.331C17.9191 14.294 18 14.3429 18 14.4189ZM19.937 7.90499L13.4661 4.37399C12.5531 3.87599 11.4489 3.87599 10.5349 4.37399L4.06399 7.90499C2.64599 8.67799 2.64599 10.714 4.06399 11.488L10.5349 15.019C11.4479 15.517 12.5521 15.517 13.4661 15.019L19.937 11.488L19.25 11.863V16C19.25 16.414 19.586 16.75 20 16.75C20.414 16.75 20.75 16.414 20.75 16V10.671C21.254 9.73899 20.986 8.47699 19.937 7.90499Z" fill="#8B8BA4"/>
    </symbol>
    <symbol id="course-icon" viewBox="0 0 24 24" fill="none" xmlns="http://www.w3.org/2000/svg">
        <path d="M18.5 2.25H7C4.582 2.25 3.25 3.582 3.25 6V18C3.25 20.243 4.757 21.75 7 21.75H18.5C19.74 21.75 20.75 20.741 20.75 19.5V13.5V4.5C20.75 3.259 19.74 2.25 18.5 2.25ZM10 6.25H14C14.414 6.25 14.75 6.586 14.75 7C14.75 7.414 14.414 7.75 14 7.75H10C9.586 7.75 9.25 7.414 9.25 7C9.25 6.586 9.586 6.25 10 6.25ZM19.25 19.5C19.25 19.914 18.913 20.25 18.5 20.25H7C4.97 20.25 4.75 18.676 4.75 18C4.75 17.324 4.97 15.75 7 15.75H18.5C18.645 15.75 18.7851 15.733 18.9221 15.707C18.9661 15.699 19.008 15.684 19.051 15.673C19.117 15.656 19.186 15.644 19.25 15.621V19.5Z" fill="#8B8BA4"/>
    </symbol>
    <symbol id="arrow-right-icon" viewBox="0 0 24 24" fill="none" xmlns="http://www.w3.org/2000/svg" >
        <path d="M10.5003 17C10.2443 17 9.98825 16.9021 9.79325 16.7071C9.40225 16.3161 9.40225 15.684 9.79325 15.293L13.0862 12L9.79325 8.70707C9.40225 8.31607 9.40225 7.68401 9.79325 7.29301C10.1842 6.90201 10.8163 6.90201 11.2073 7.29301L15.2073 11.293C15.5983 11.684 15.5983 12.3161 15.2073 12.7071L11.2073 16.7071C11.0123 16.9021 10.7563 17 10.5003 17Z" fill="white"/>
    </symbol>
    <symbol id="twitter-icon" viewBox="0 0 24 21" fill="none" xmlns="http://www.w3.org/2000/svg" >
        <path d="M24 2.98145C23.1 3.43145 22.2 3.58145 21.15 3.73145C22.2 3.13145 22.95 2.23145 23.25 1.03145C22.35 1.63145 21.3 1.93145 20.1 2.23145C19.2 1.33145 17.85 0.731445 16.5 0.731445C13.35 0.731445 10.95 3.73145 11.7 6.73145C7.65 6.58145 4.05 4.63145 1.5 1.63145C0.15 3.88145 0.9 6.73145 3 8.23145C2.25 8.23145 1.5 7.93145 0.75 7.63145C0.75 9.88145 2.4 11.9814 4.65 12.5814C3.9 12.7314 3.15 12.8814 2.4 12.7314C3 14.6814 4.8 16.1814 7.05 16.1814C5.25 17.5314 2.55 18.2814 0 17.9814C2.25 19.3314 4.8 20.2314 7.5 20.2314C16.65 20.2314 21.75 12.5814 21.45 5.53145C22.5 4.93145 23.4 4.03145 24 2.98145Z" fill="white"/>
    </symbol>
    <symbol id="facebook-icon" viewBox="0 0 24 24" fill="none" xmlns="http://www.w3.org/2000/svg" >
        <path d="M22 16.6714C22 20.3114 19.83 22.4814 16.19 22.4814H15C14.45 22.4814 14 22.0314 14 21.4814V15.7115C14 15.4415 14.22 15.2115 14.49 15.2115L16.25 15.1815C16.39 15.1715 16.51 15.0715 16.54 14.9315L16.89 13.0215C16.92 12.8415 16.78 12.6714 16.59 12.6714L14.46 12.7014C14.18 12.7014 13.96 12.4815 13.95 12.2115L13.91 9.76144C13.91 9.60144 14.04 9.46146 14.21 9.46146L16.61 9.42145C16.78 9.42145 16.91 9.29146 16.91 9.12146L16.87 6.72144C16.87 6.55144 16.74 6.42145 16.57 6.42145L13.87 6.46146C12.21 6.49146 10.89 7.85144 10.92 9.51144L10.97 12.2614C10.98 12.5414 10.76 12.7615 10.48 12.7715L9.28 12.7914C9.11 12.7914 8.98001 12.9214 8.98001 13.0914L9.01001 14.9915C9.01001 15.1615 9.14 15.2914 9.31 15.2914L10.51 15.2715C10.79 15.2715 11.01 15.4914 11.02 15.7614L11.11 21.4615C11.12 22.0215 10.67 22.4814 10.11 22.4814H7.81C4.17 22.4814 2 20.3114 2 16.6614V8.29144C2 4.65144 4.17 2.48145 7.81 2.48145H16.19C19.83 2.48145 22 4.65144 22 8.29144V16.6714V16.6714Z" fill="white"/>
    </symbol>
    <symbol id="instagram-icon" viewBox="0 0 24 24" fill="none" xmlns="http://www.w3.org/2000/svg" >
        <path d="M16.19 2.48145H7.81C4.17 2.48145 2 4.65145 2 8.29145V16.6614C2 20.3114 4.17 22.4814 7.81 22.4814H16.18C19.82 22.4814 21.99 20.3114 21.99 16.6714V8.29145C22 4.65145 19.83 2.48145 16.19 2.48145ZM12 16.3614C9.86 16.3614 8.12 14.6214 8.12 12.4814C8.12 10.3414 9.86 8.60145 12 8.60145C14.14 8.60145 15.88 10.3414 15.88 12.4814C15.88 14.6214 14.14 16.3614 12 16.3614ZM17.92 7.36145C17.87 7.48145 17.8 7.59145 17.71 7.69145C17.61 7.78145 17.5 7.85145 17.38 7.90145C17.26 7.95145 17.13 7.98145 17 7.98145C16.73 7.98145 16.48 7.88145 16.29 7.69145C16.2 7.59145 16.13 7.48145 16.08 7.36145C16.03 7.24145 16 7.11145 16 6.98145C16 6.85145 16.03 6.72145 16.08 6.60145C16.13 6.47145 16.2 6.37145 16.29 6.27145C16.52 6.04145 16.87 5.93145 17.19 6.00145C17.26 6.01145 17.32 6.03145 17.38 6.06145C17.44 6.08145 17.5 6.11145 17.56 6.15145C17.61 6.18145 17.66 6.23145 17.71 6.27145C17.8 6.37145 17.87 6.47145 17.92 6.60145C17.97 6.72145 18 6.85145 18 6.98145C18 7.11145 17.97 7.24145 17.92 7.36145Z" fill="white"/>
    </symbol>
    <symbol id="hamburger-icon" viewBox="0 0 20 14" fill="none" xmlns="http://www.w3.org/2000/svg">
        <path d="M19 2H6C5.448 2 5 1.552 5 1C5 0.448 5.448 0 6 0H19C19.552 0 20 0.448 20 1C20 1.552 19.552 2 19 2ZM20 7C20 6.448 19.552 6 19 6H1C0.448 6 0 6.448 0 7C0 7.552 0.448 8 1 8H19C19.552 8 20 7.552 20 7ZM20 13C20 12.448 19.552 12 19 12H10C9.448 12 9 12.448 9 13C9 13.552 9.448 14 10 14H19C19.552 14 20 13.552 20 13Z" fill="#25314C"/>
    </symbol>
    <symbol id="close-icon" viewBox="0 0 14 14" fill="none" xmlns="http://www.w3.org/2000/svg">
        <path d="M8.41425 7.00022L13.7073 1.70719C14.0983 1.31719 14.0983 0.68325 13.7073 0.29325C13.3163 -0.09775 12.6842 -0.09775 12.2933 0.29325L7.00025 5.58622L1.70725 0.29325C1.31625 -0.09775 0.68425 -0.09775 0.29325 0.29325C-0.09775 0.68325 -0.09775 1.31719 0.29325 1.70719L5.58625 7.00022L0.29325 12.2933C-0.09775 12.6833 -0.09775 13.3172 0.29325 13.7072C0.48825 13.9022 0.744251 14.0002 1.00025 14.0002C1.25625 14.0002 1.51225 13.9022 1.70725 13.7072L7.00025 8.41422L12.2933 13.7072C12.4882 13.9022 12.7443 14.0002 13.0003 14.0002C13.2563 14.0002 13.5123 13.9022 13.7073 13.7072C14.0983 13.3172 14.0983 12.6833 13.7073 12.2933L8.41425 7.00022Z" fill="#25314C"/>
    </symbol>
    <symbol id="arrow-left-icon" viewBox="0 0 24 24" fill="none" xmlns="http://www.w3.org/2000/svg" >
        <path d="M15 20.0003C14.744 20.0003 14.488 19.9023 14.293 19.7073L7.29301 12.7073C6.90201 12.3163 6.90201 11.6842 7.29301 11.2933L14.293 4.29325C14.684 3.90225 15.3161 3.90225 15.7071 4.29325C16.0981 4.68425 16.0981 5.31631 15.7071 5.70731L9.4141 12.0003L15.7071 18.2933C16.0981 18.6842 16.0981 19.3163 15.7071 19.7073C15.5121 19.9023 15.256 20.0003 15 20.0003Z" fill="#25314C"/>
    </symbol>
    <symbol id="plus-icon" viewBox="0 0 16 16" fill="none" xmlns="http://www.w3.org/2000/svg" >
        <path d="M12.6665 7.33317H8.6665V3.33317C8.6665 2.96517 8.36784 2.6665 7.99984 2.6665C7.63184 2.6665 7.33317 2.96517 7.33317 3.33317V7.33317H3.33317C2.96517 7.33317 2.6665 7.63184 2.6665 7.99984C2.6665 8.36784 2.96517 8.6665 3.33317 8.6665H7.33317V12.6665C7.33317 13.0345 7.63184 13.3332 7.99984 13.3332C8.36784 13.3332 8.6665 13.0345 8.6665 12.6665V8.6665H12.6665C13.0345 8.6665 13.3332 8.36784 13.3332 7.99984C13.3332 7.63184 13.0345 7.33317 12.6665 7.33317Z" fill="#6FA7B4"/>
    </symbol>
    <symbol id="rating-full-icon" viewBox="0 0 16 16" fill="none" xmlns="http://www.w3.org/2000/svg" >
        <path d="M8.64141 3.064L9.93609 5.67533C10.0334 5.872 10.2214 6.00801 10.4394 6.03935L13.428 6.47131C13.976 6.55065 14.1947 7.22266 13.7981 7.60799L11.6374 9.70467C11.4794 9.858 11.4074 10.0787 11.4447 10.2953L11.9387 13.1647C12.0387 13.7467 11.4274 14.1907 10.9034 13.9167L8.31141 12.56C8.11675 12.458 7.88473 12.458 7.69073 12.56L5.10072 13.9153C4.57605 14.19 3.9627 13.7453 4.06337 13.162L4.55743 10.2953C4.59476 10.0787 4.52272 9.858 4.36472 9.70467L2.20407 7.60799C1.80674 7.22266 2.02536 6.55065 2.57403 6.47131L5.56272 6.03935C5.78005 6.00801 5.96805 5.872 6.06605 5.67533L7.36073 3.064C7.6214 2.534 8.37874 2.534 8.64141 3.064Z" fill="#E38800"/>
    </symbol>
    <symbol id="rating-empty-icon" viewBox="0 0 16 16" fill="none" xmlns="http://www.w3.org/2000/svg" >
        <path d="M8.19345 3.2861L8.19341 3.28603C8.11372 3.12524 7.88619 3.12853 7.8094 3.28467L7.8087 3.2861L6.51402 5.89743L6.51357 5.89833C6.34253 6.24158 6.01415 6.47937 5.63424 6.5342C5.63418 6.53421 5.63412 6.53422 5.63406 6.53423L2.64558 6.96617C2.50576 6.98638 2.45436 7.1542 2.55217 7.24906L2.55228 7.24917L4.71292 9.34584L4.71293 9.34586C4.98911 9.61388 5.1156 10.0005 5.05017 10.3802L5.05016 10.3802L4.5561 13.2469L4.55608 13.247C4.52635 13.4193 4.70862 13.5562 4.86882 13.4724L4.8689 13.4723L7.45804 12.1175C7.45809 12.1174 7.45814 12.1174 7.45819 12.1174C7.79808 11.9387 8.20377 11.9391 8.54347 12.1171M8.19345 3.2861L11.1352 13.4737L10.9034 13.9167L11.1351 13.4736L8.54347 12.1171M8.19345 3.2861L9.48797 5.89712C9.48802 5.89722 9.48807 5.89733 9.48812 5.89743C9.65874 6.24191 9.98782 6.47944 10.3679 6.5342C10.368 6.53421 10.368 6.53422 10.3681 6.53423C10.3682 6.53424 10.3682 6.53425 10.3683 6.53426L13.3564 6.96615M8.19345 3.2861L13.3564 6.96615M8.54347 12.1171L8.31141 12.56L8.54328 12.117L8.54347 12.1171ZM13.3564 6.96615C13.3564 6.96616 13.3565 6.96616 13.3565 6.96617C13.4954 6.98637 13.5475 7.15434 13.4497 7.24935L11.2892 9.34584L11.2892 9.34586M13.3564 6.96615L11.2892 9.34586M11.2892 9.34586C11.013 9.61386 10.8866 10.0004 10.952 10.3802M11.2892 9.34586L10.952 10.3802M10.952 10.3802C10.952 10.3802 10.952 10.3802 10.952 10.3802L10.952 10.3802ZM11.4459 13.2493L11.4459 13.2495L11.9387 13.1647L11.4459 13.2493Z" stroke="#E38800"/>
    </symbol>
    <symbol id="big-rating-full-icon" viewBox="0 0 24 24" fill="none" xmlns="http://www.w3.org/2000/svg" >
        <path d="M12.9621 4.59625L14.9041 8.51324C15.0501 8.80824 15.3321 9.01226 15.6591 9.05926L20.142 9.70721C20.964 9.82621 21.2921 10.8342 20.6971 11.4122L17.4561 14.5572C17.2191 14.7872 17.1111 15.1182 17.1671 15.4432L17.908 19.7473C18.058 20.6203 17.1411 21.2862 16.3551 20.8752L12.4671 18.8403C12.1751 18.6873 11.8271 18.6873 11.5361 18.8403L7.65108 20.8732C6.86408 21.2852 5.94405 20.6182 6.09505 19.7432L6.83614 15.4432C6.89214 15.1182 6.78408 14.7872 6.54708 14.5572L3.30611 11.4122C2.71011 10.8342 3.03804 9.82621 3.86104 9.70721L8.34407 9.05926C8.67007 9.01226 8.95208 8.80824 9.09908 8.51324L11.0411 4.59625C11.4321 3.80125 12.5681 3.80125 12.9621 4.59625Z" fill="#E38800"/>
    </symbol>
    <symbol id="location-pin-icon" viewBox="0 0 24 24" fill="none" xmlns="http://www.w3.org/2000/svg" >
        <path d="M12 2.5C7.313 2.5 3.5 6.313 3.5 11C3.5 15.983 8.129 19.041 11.192 21.064L11.722 21.416C11.806 21.472 11.903 21.5 11.999 21.5C12.095 21.5 12.192 21.472 12.276 21.416L12.806 21.064C15.869 19.041 20.498 15.983 20.498 11C20.5 6.313 16.687 2.5 12 2.5ZM12 13.5C10.619 13.5 9.5 12.381 9.5 11C9.5 9.619 10.619 8.5 12 8.5C13.381 8.5 14.5 9.619 14.5 11C14.5 12.381 13.381 13.5 12 13.5Z" fill="#6FA7B4"/>
     </symbol>
</svg>