<svg width="45" height="45" viewBox="0 0 45 45" fill="none" xmlns="http://www.w3.org/2000/svg">
<circle cx="22.5" cy="22.5" r="22.5" fill="#6FA7B4"/>
<path d="M19.009 17.5C19.009 15.294 20.803 13.5 23.009 13.5C25.215 13.5 27.009 15.294 27.009 17.5C27.009 19.706 25.215 21.5 23.009 21.5C20.803 21.5 19.009 19.706 19.009 17.5ZM25 23.5H21C16.94 23.5 15.5 26.473 15.5 29.019V32C15.5 32.276 15.724 32.5 16 32.5H30C30.276 32.5 30.5 32.276 30.5 32V29.019C30.5 26.473 29.06 23.5 25 23.5Z" fill="white"/>
</svg>
