<svg width="812" height="253" viewBox="0 0 812 253" fill="none" xmlns="http://www.w3.org/2000/svg">
<rect width="811.508" height="253" fill="#E7FAFF"/>
<path d="M449.533 108.7L444.534 144.454C443.879 149.008 442.1 152.242 439.296 154.088C438.325 154.588 437.263 154.084 437.263 153.071V117.275C437.263 106.404 430.771 99.9128 419.9 99.9128C419.9 99.9128 381.933 99.9128 380.683 99.9128C379.433 99.9128 379.404 98.7873 379.491 98.2873C380.15 94.3456 381.708 91.4289 384.125 89.6081C386.654 87.7039 390.071 87.0418 394.3 87.6377L438.304 93.8042C442.542 94.4042 445.658 95.992 447.566 98.5253C449.471 101.054 450.133 104.479 449.533 108.7ZM431.013 117.271V153.388C431.013 160.796 427.309 164.5 419.9 164.5H375.45C368.042 164.5 364.337 160.796 364.337 153.388V117.271C364.337 109.863 368.042 106.159 375.45 106.159H419.9C427.309 106.159 431.013 109.859 431.013 117.271ZM370.583 117.271V147.179L376.554 141.208C377.971 139.75 380.346 139.75 381.804 141.208L385.262 144.667C385.971 145.375 387.179 145.375 387.887 144.667L406.179 126.376C407.596 124.959 409.971 124.959 411.429 126.376L424.763 139.742V117.271C424.763 113.317 423.854 112.409 419.9 112.409H375.45C371.492 112.409 370.583 113.317 370.583 117.271ZM383.091 129.084C385.387 129.084 387.25 127.217 387.25 124.917C387.25 122.617 385.387 120.75 383.091 120.75H383.058C380.763 120.75 378.917 122.617 378.917 124.917C378.917 127.217 380.796 129.084 383.091 129.084Z" fill="#25314C"/>
</svg>
