<svg width="100" height="200" viewBox="0 0 100 200" fill="none" xmlns="http://www.w3.org/2000/svg">
<g clip-path="url(#clip0_639_9947)">
<path d="M100 15.4V20.99L84.28 5.6L67.13 22.4L49.99 5.6L32.85 22.4L15.71 5.6L0 21V15.4L15.71 0L32.85 16.8L49.99 0L67.13 16.8L84.28 0L100 15.4Z" fill="#75ACB9"/>
<path d="M100 34.8004V40.3904L84.28 25.0004L67.13 41.8004L49.99 25.0004L32.85 41.8004L15.71 25.0004L0 40.4004V34.8004L15.71 19.4004L32.85 36.2004L49.99 19.4004L67.13 36.2004L84.28 19.4004L100 34.8004Z" fill="#75ACB9"/>
<path d="M100 73.5992V79.1892L84.28 63.7992L67.13 80.5992L49.99 63.7992L32.85 80.5992L15.71 63.7992L0 79.1992V73.5992L15.71 58.1992L32.85 74.9992L49.99 58.1992L67.13 74.9992L84.28 58.1992L100 73.5992Z" fill="#75ACB9"/>
<path d="M100 54.2008V59.7908L84.28 44.4008L67.13 61.2008L49.99 44.4008L32.85 61.2008L15.71 44.4008L0 59.8008V54.2008L15.71 38.8008L32.85 55.6008L49.99 38.8008L67.13 55.6008L84.28 38.8008L100 54.2008Z" fill="#75ACB9"/>
<path d="M100 92.9996V98.5896L84.28 83.1996L67.13 99.9996L49.99 83.1996L32.85 99.9996L15.71 83.1996L0 98.5996V92.9996L15.71 77.5996L32.85 94.3996L49.99 77.5996L67.13 94.3996L84.28 77.5996L100 92.9996Z" fill="#75ACB9"/>
</g>
<g clip-path="url(#clip1_639_9947)">
<path d="M100 115.4V120.99L84.28 105.6L67.13 122.4L49.99 105.6L32.85 122.4L15.71 105.6L0 121V115.4L15.71 100L32.85 116.8L49.99 100L67.13 116.8L84.28 100L100 115.4Z" fill="#75ACB9"/>
<path d="M100 134.8V140.39L84.28 125L67.13 141.8L49.99 125L32.85 141.8L15.71 125L0 140.4V134.8L15.71 119.4L32.85 136.2L49.99 119.4L67.13 136.2L84.28 119.4L100 134.8Z" fill="#75ACB9"/>
<path d="M100 173.599V179.189L84.28 163.799L67.13 180.599L49.99 163.799L32.85 180.599L15.71 163.799L0 179.199V173.599L15.71 158.199L32.85 174.999L49.99 158.199L67.13 174.999L84.28 158.199L100 173.599Z" fill="#75ACB9"/>
<path d="M100 154.201V159.791L84.28 144.401L67.13 161.201L49.99 144.401L32.85 161.201L15.71 144.401L0 159.801V154.201L15.71 138.801L32.85 155.601L49.99 138.801L67.13 155.601L84.28 138.801L100 154.201Z" fill="#75ACB9"/>
<path d="M100 193V198.59L84.28 183.2L67.13 200L49.99 183.2L32.85 200L15.71 183.2L0 198.6V193L15.71 177.6L32.85 194.4L49.99 177.6L67.13 194.4L84.28 177.6L100 193Z" fill="#75ACB9"/>
</g>
<defs>
<clipPath id="clip0_639_9947">
<rect width="100" height="100" fill="white"/>
</clipPath>
<clipPath id="clip1_639_9947">
<rect width="100" height="100" fill="white" transform="translate(0 100)"/>
</clipPath>
</defs>
</svg>
