<svg width="572" height="400" viewBox="0 0 572 400" fill="none" xmlns="http://www.w3.org/2000/svg">
<rect width="572" height="400" rx="6" fill="#E7FAFF"/>
<path d="M329.533 181.7L324.534 217.454C323.879 222.008 322.1 225.242 319.296 227.088C318.325 227.588 317.263 227.084 317.263 226.071V190.275C317.263 179.404 310.771 172.913 299.9 172.913C299.9 172.913 261.933 172.913 260.683 172.913C259.433 172.913 259.404 171.787 259.491 171.287C260.15 167.346 261.708 164.429 264.125 162.608C266.654 160.704 270.071 160.042 274.3 160.638L318.304 166.804C322.542 167.404 325.658 168.992 327.566 171.525C329.471 174.054 330.133 177.479 329.533 181.7ZM311.013 190.271V226.388C311.013 233.796 307.309 237.5 299.9 237.5H255.45C248.042 237.5 244.337 233.796 244.337 226.388V190.271C244.337 182.863 248.042 179.159 255.45 179.159H299.9C307.309 179.159 311.013 182.859 311.013 190.271ZM250.583 190.271V220.179L256.554 214.208C257.971 212.75 260.346 212.75 261.804 214.208L265.262 217.667C265.971 218.375 267.179 218.375 267.887 217.667L286.179 199.376C287.596 197.959 289.971 197.959 291.429 199.376L304.763 212.742V190.271C304.763 186.317 303.854 185.409 299.9 185.409H255.45C251.492 185.409 250.583 186.317 250.583 190.271ZM263.091 202.084C265.387 202.084 267.25 200.217 267.25 197.917C267.25 195.617 265.387 193.75 263.091 193.75H263.058C260.763 193.75 258.917 195.617 258.917 197.917C258.917 200.217 260.796 202.084 263.091 202.084Z" fill="#25314C"/>
</svg>
