<svg width="100" height="100" viewBox="0 0 100 100" fill="none" xmlns="http://www.w3.org/2000/svg">
<g clip-path="url(#clip0_639_9948)">
<path d="M100 15.4V20.99L84.28 5.6L67.13 22.4L49.99 5.6L32.85 22.4L15.71 5.6L0 21V15.4L15.71 0L32.85 16.8L49.99 0L67.13 16.8L84.28 0L100 15.4Z" fill="#75ACB9"/>
<path d="M100 34.8004V40.3904L84.28 25.0004L67.13 41.8004L49.99 25.0004L32.85 41.8004L15.71 25.0004L0 40.4004V34.8004L15.71 19.4004L32.85 36.2004L49.99 19.4004L67.13 36.2004L84.28 19.4004L100 34.8004Z" fill="#75ACB9"/>
<path d="M100 73.5992V79.1892L84.28 63.7992L67.13 80.5992L49.99 63.7992L32.85 80.5992L15.71 63.7992L0 79.1992V73.5992L15.71 58.1992L32.85 74.9992L49.99 58.1992L67.13 74.9992L84.28 58.1992L100 73.5992Z" fill="#75ACB9"/>
<path d="M100 54.2008V59.7908L84.28 44.4008L67.13 61.2008L49.99 44.4008L32.85 61.2008L15.71 44.4008L0 59.8008V54.2008L15.71 38.8008L32.85 55.6008L49.99 38.8008L67.13 55.6008L84.28 38.8008L100 54.2008Z" fill="#75ACB9"/>
<path d="M100 92.9996V98.5896L84.28 83.1996L67.13 99.9996L49.99 83.1996L32.85 99.9996L15.71 83.1996L0 98.5996V92.9996L15.71 77.5996L32.85 94.3996L49.99 77.5996L67.13 94.3996L84.28 77.5996L100 92.9996Z" fill="#75ACB9"/>
</g>
<defs>
<clipPath id="clip0_639_9948">
<rect width="100" height="100" fill="white"/>
</clipPath>
</defs>
</svg>
